<svg width="59" height="45" viewBox="0 0 59 45" fill="none" xmlns="http://www.w3.org/2000/svg">
<path d="M14.8252 17.8592C11.3689 17.8592 8.61475 15.0856 8.61475 11.605V7.25422C8.61475 3.77361 11.3689 1 14.8252 1C18.2814 1 21.0356 3.77361 21.0356 7.25422V11.605C21.0356 15.0856 18.2274 17.8592 14.8252 17.8592Z" stroke="#4E4E4E" stroke-width="2" stroke-miterlimit="10" stroke-linecap="round" stroke-linejoin="round"/>
<path d="M37.4175 36.4338H30.7719C28.8116 36.4338 27.2339 34.614 27.2339 32.353V16.2507C27.2339 13.9897 28.8116 12.1699 30.7719 12.1699H53.8166C55.7768 12.1699 57.3545 13.9897 57.3545 16.2507V32.353C57.3545 34.614 55.7768 36.4338 53.8166 36.4338H48.414" stroke="#4E4E4E" stroke-width="2" stroke-miterlimit="10" stroke-linecap="round" stroke-linejoin="round"/>
<path d="M39.7842 41.9168V32.624C39.7842 31.9602 40.2397 31.4136 40.7928 31.4136H44.6323C45.1854 31.4136 45.641 31.9602 45.641 32.624V41.9168C45.641 42.5805 45.1854 43.1272 44.6323 43.1272H40.7928C40.2397 43.1272 39.7842 42.5805 39.7842 41.9168Z" stroke="#4E4E4E" stroke-width="2" stroke-miterlimit="10" stroke-linecap="round" stroke-linejoin="round"/>
<path d="M8.61468 17.8591C7.15658 18.0223 5.69848 18.6749 4.56441 19.6538C1.3782 22.2099 1.05418 26.3975 1.05418 30.2588C1.05418 33.6306 0.244127 39.5586 4.88843 40.1024C7.96663 40.4831 11.0448 40.2112 14.177 40.3743C15.6351 40.4287 17.1472 40.3199 18.6053 39.9393C20.1174 39.5586 22.2236 38.4165 21.6295 36.4586C21.5215 36.0236 21.1975 35.6973 20.8735 35.3709C19.3074 34.0657 16.8772 33.9026 14.9331 33.7394C12.5029 33.5219 10.0728 33.5219 7.64261 33.6306" stroke="#4E4E4E" stroke-width="2" stroke-miterlimit="10" stroke-linecap="round" stroke-linejoin="round"/>
<path d="M21.332 17.3155C21.332 17.3155 24.5722 16.7717 24.5722 23.2978C24.5722 29.824 24.5722 32.1081 24.5722 32.1081" stroke="#4E4E4E" stroke-width="2" stroke-miterlimit="10" stroke-linecap="round" stroke-linejoin="round"/>
<path d="M24.0591 39.2866H37.2899" stroke="#4E4E4E" stroke-width="2" stroke-miterlimit="10" stroke-linecap="round" stroke-linejoin="round"/>
</svg>
