<svg width="45" height="60" viewBox="0 0 45 60" fill="none" xmlns="http://www.w3.org/2000/svg">
<path d="M16.0171 12.9729C13.5359 12.9729 11.5059 10.9204 11.5059 8.41177V5.56109C11.5059 3.05249 13.5359 1 16.0171 1C18.4983 1 20.5284 3.05249 20.5284 5.56109V8.41177C20.5284 10.9204 18.4983 12.9729 16.0171 12.9729Z" stroke="#4E4E4E" stroke-width="2" stroke-miterlimit="10" stroke-linecap="round" stroke-linejoin="round"/>
<path d="M9.85534 13.9729C9.85534 13.9729 -3.56571 22.81 2.63729 29.6516C8.8403 36.4933 8.8403 36.4933 8.8403 36.4933" stroke="#4E4E4E" stroke-width="2" stroke-miterlimit="10" stroke-linecap="round" stroke-linejoin="round"/>
<path d="M11.7578 38.4932V58.4479" stroke="#4E4E4E" stroke-width="2" stroke-miterlimit="10" stroke-linecap="round" stroke-linejoin="round"/>
<path d="M23.0923 11.7185C23.0923 11.7185 27.3216 12.6877 26.7577 20.6696L32.9607 28.0814" stroke="#4E4E4E" stroke-width="2" stroke-miterlimit="10" stroke-linecap="round" stroke-linejoin="round"/>
<path d="M31.2424 37.3485C29.6635 37.3485 28.4229 36.0942 28.4229 34.4978V33.3575C28.4229 31.7611 29.6635 30.5068 31.2424 30.5068C32.8213 30.5068 34.0619 31.7611 34.0619 33.3575V34.4978C34.0619 36.0942 32.8213 37.3485 31.2424 37.3485Z" stroke="#4E4E4E" stroke-width="2" stroke-miterlimit="10" stroke-linecap="round" stroke-linejoin="round"/>
<path d="M28.4231 39.9756C27.0697 38.6073 25.6599 37.2389 24.4193 35.7566C23.5171 34.6733 22.7276 33.533 21.8817 32.3928C21.3742 31.7656 20.4156 30.3403 19.5133 30.9104C18.7802 31.3665 18.6675 32.6208 18.6111 33.419C18.4983 36.0416 20.472 37.8661 22.2201 39.4054C23.1223 40.2036 24.0246 41.0588 24.8705 41.9711C25.1524 42.2561 25.4344 42.5982 25.6035 42.9403V58.448" stroke="#4E4E4E" stroke-width="2" stroke-miterlimit="10" stroke-linecap="round" stroke-linejoin="round"/>
<path d="M34.062 39.9756C35.4154 38.6073 36.8252 37.2389 38.0658 35.7566C38.968 34.6733 39.7575 33.533 40.6034 32.3928C41.1109 31.7656 42.0695 30.3403 42.9718 30.9104C43.7049 31.3665 43.8177 32.6208 43.874 33.419C43.9868 36.0416 42.0131 37.8661 40.265 39.4054C39.3628 40.2036 38.4605 41.0588 37.6146 41.9711C37.3327 42.2561 37.0507 42.5982 36.8816 42.9403V58.448" stroke="#4E4E4E" stroke-width="2" stroke-miterlimit="10" stroke-linecap="round" stroke-linejoin="round"/>
</svg>
