<svg width="51" height="51" viewBox="0 0 51 51" fill="none" xmlns="http://www.w3.org/2000/svg">
<path d="M25.3136 23.4725C20.6588 23.4725 16.9136 19.7271 16.9136 15.0721V9.40043C16.9136 4.74541 20.6588 1 25.3136 1C29.9684 1 33.7136 4.74541 33.7136 9.40043V15.0185C33.7671 19.7271 29.9684 23.4725 25.3136 23.4725Z" stroke="#4E4E4E" stroke-width="2" stroke-miterlimit="10" stroke-linecap="round" stroke-linejoin="round"/>
<path d="M11.4711 18.9963C9.27748 20.9226 7.03034 22.7953 5.10422 24.989C3.44561 26.8617 0.716941 30.0186 1.41248 33.1754C2.32204 37.0278 7.19085 37.8304 10.5081 37.9374C12.2202 37.9909 14.2533 38.0444 15.9119 37.5094C18.3195 36.8138 20.2457 34.406 17.8915 32.3728C16.1794 30.8747 13.3437 30.6071 11.1501 30.7676" stroke="#4E4E4E" stroke-width="2" stroke-miterlimit="10" stroke-linecap="round" stroke-linejoin="round"/>
<path d="M39.2102 18.9963C41.4038 20.9226 43.651 22.7953 45.5771 24.989C47.2357 26.8617 50.0179 30.0721 49.2688 33.1754C48.3592 37.0278 43.4904 37.8304 40.1732 37.9374C38.4611 37.9909 36.428 38.0444 34.7694 37.5094C32.3618 36.8138 30.4356 34.406 32.7898 32.3728C34.5019 30.8747 37.3376 30.6071 39.5312 30.7676" stroke="#4E4E4E" stroke-width="2" stroke-miterlimit="10" stroke-linecap="round" stroke-linejoin="round"/>
<path d="M13.7385 42.4172L11.6519 49.694H41.2927L38.6175 42.4172" stroke="#4E4E4E" stroke-width="2" stroke-miterlimit="10" stroke-linecap="round" stroke-linejoin="round"/>
<path d="M30.3248 25.0776L21.4048 40.0902" stroke="#4E4E4E" stroke-width="2" stroke-miterlimit="10" stroke-linecap="round" stroke-linejoin="round"/>
</svg>
