<svg width="49" height="42" viewBox="0 0 49 42" fill="none" xmlns="http://www.w3.org/2000/svg">
<path d="M14.8252 17.8592C11.3689 17.8592 8.61475 15.0856 8.61475 11.605V7.25422C8.61475 3.77361 11.3689 1 14.8252 1C18.2814 1 21.0356 3.77361 21.0356 7.25422V11.605C21.0356 15.0856 18.2274 17.8592 14.8252 17.8592Z" stroke="#717171" stroke-width="2" stroke-miterlimit="10" stroke-linecap="round" stroke-linejoin="round"/>
<path d="M30.7905 34H25.054C23.3619 34 22 32.2 22 29.9636V14.0364C22 11.8 23.3619 10 25.054 10H44.946C46.6381 10 48 11.8 48 14.0364V29.9636C48 32.2 46.6381 34 44.946 34H40.2825" stroke="#717171" stroke-width="2" stroke-miterlimit="10" stroke-linecap="round" stroke-linejoin="round"/>
<path d="M33 39.76V30.24C33 29.56 33.3889 29 33.8611 29H37.1389C37.6111 29 38 29.56 38 30.24V39.76C38 40.44 37.6111 41 37.1389 41H33.8611C33.3889 41 33 40.44 33 39.76Z" stroke="#717171" stroke-width="2" stroke-miterlimit="10" stroke-linecap="round" stroke-linejoin="round"/>
<path d="M8.61468 17.8591C7.15658 18.0223 5.69848 18.6749 4.56441 19.6538C1.3782 22.2099 1.05418 26.3975 1.05418 30.2588C1.05418 33.6306 0.244127 39.5586 4.88843 40.1024C7.96663 40.4831 11.0448 40.2112 14.177 40.3743C15.6351 40.4287 17.1472 40.3199 18.6053 39.9393C20.1174 39.5586 22.2236 38.4165 21.6295 36.4586C21.5215 36.0236 21.1975 35.6973 20.8735 35.3709C19.3074 34.0657 16.8772 33.9026 14.9331 33.7394C12.5029 33.5219 10.0728 33.5219 7.64261 33.6306" stroke="#717171" stroke-width="2" stroke-miterlimit="10" stroke-linecap="round" stroke-linejoin="round"/>
<path d="M24 38L30 38" stroke="#717171" stroke-width="2" stroke-miterlimit="10" stroke-linecap="round" stroke-linejoin="round"/>
</svg>
